<?xml version="1.0" standalone="no"?>
<!DOCTYPE svg PUBLIC "-//W3C//DTD SVG 20010904//EN"
 "http://www.w3.org/TR/2001/REC-SVG-20010904/DTD/svg10.dtd">
<svg version="1.0" xmlns="http://www.w3.org/2000/svg"
 width="317.000000pt" height="317.000000pt" viewBox="0 0 317.000000 317.000000"
 preserveAspectRatio="xMidYMid meet">

<g transform="translate(0.000000,317.000000) scale(0.100000,-0.100000)"
fill="#000000" stroke="none">
<path d="M0 1585 l0 -1585 1585 0 1585 0 0 1585 0 1585 -1585 0 -1585 0 0
-1585z m1515 1003 c2 -13 31 -156 64 -318 84 -419 112 -555 114 -557 1 -1 78
-5 170 -9 159 -7 168 -8 172 -28 12 -61 14 -86 7 -90 -5 -3 -84 -19 -178 -35
-93 -17 -196 -36 -229 -42 -94 -17 -89 -19 -96 36 -4 28 -12 82 -18 120 -6 39
-26 178 -46 310 -19 132 -45 303 -56 380 -35 237 -36 245 -31 250 3 3 31 5 63
5 53 0 59 -2 64 -22z m173 -53 c7 -38 21 -113 30 -165 l18 -95 42 -9 c26 -5
46 -5 52 0 7 8 1 51 -40 272 -7 35 -10 65 -7 68 3 4 24 3 46 -1 44 -7 43 -5
71 -165 6 -36 15 -85 20 -110 5 -25 21 -115 35 -200 14 -85 30 -173 35 -195 5
-22 12 -66 15 -98 l7 -58 -43 3 -44 3 -17 100 c-35 197 -28 179 -75 186 -24 3
-47 3 -51 0 -5 -3 2 -60 14 -126 31 -163 31 -165 -5 -165 -17 0 -33 5 -36 11
-9 14 -165 776 -165 805 0 12 10 14 42 12 l43 -3 13 -70z m-378 58 c0 -5 14
-104 31 -221 18 -126 27 -218 22 -223 -5 -5 -163 -52 -351 -106 -205 -58 -342
-101 -342 -109 0 -6 41 -103 91 -215 120 -269 179 -407 179 -418 0 -12 -130
-151 -141 -151 -11 0 -149 234 -242 410 -163 312 -231 510 -232 670 0 67 4 80
30 120 72 107 218 161 585 215 219 32 370 43 370 28z m940 -28 c88 -16 241
-53 249 -61 5 -5 7 -4 -58 -43 -41 -25 -63 -32 -95 -30 -48 4 -47 6 -28 -121
6 -41 28 -183 48 -315 48 -321 50 -335 33 -346 -17 -11 -59 -12 -59 -1 0 4
-12 75 -26 157 -14 83 -29 175 -34 205 -21 135 -72 435 -74 437 -1 1 -53 10
-115 20 -122 18 -124 20 -134 87 l-6 39 107 -6 c59 -4 145 -14 192 -22z m452
-130 c105 -69 141 -195 103 -359 -24 -103 -30 -113 -84 -141 l-50 -25 -3 62
-3 63 -45 7 c-25 4 -55 10 -67 13 -23 5 -23 4 -23 -93 0 -96 -1 -99 -25 -110
-47 -22 -50 -17 -64 91 -7 56 -16 127 -21 157 -20 121 -30 200 -30 224 0 21
16 33 108 85 119 66 139 69 204 26z m-628 -38 l69 -12 14 -60 c7 -32 12 -64
10 -69 -2 -6 -20 -9 -40 -8 -43 4 -42 10 -18 -113 17 -86 19 -90 47 -95 22 -4
30 -12 35 -35 14 -62 11 -75 -16 -75 -16 0 -25 -6 -25 -15 0 -22 31 -199 37
-207 2 -5 19 -8 38 -8 35 0 45 -13 45 -55 0 -25 -7 -28 -102 -41 -29 -4 -48
-2 -48 4 0 5 -14 85 -30 178 -28 159 -41 232 -90 499 -11 61 -20 113 -20 118
0 9 10 8 94 -6z m-675 -424 c7 -54 23 -170 37 -258 13 -88 26 -177 29 -197 l5
-37 -53 -11 c-85 -20 -90 -16 -102 72 -6 43 -15 82 -20 87 -10 8 -199 -29
-212 -43 -4 -4 8 -52 27 -108 l33 -101 -34 -29 c-46 -39 -79 -62 -83 -57 -17
18 -261 601 -254 605 14 9 580 173 598 173 12 1 19 -21 29 -96z m1308 -160 c3
-6 -55 -72 -126 -147 -72 -74 -131 -139 -131 -145 0 -23 31 -9 89 39 33 28 63
50 66 50 8 0 -62 -136 -80 -154 -30 -29 -158 5 -171 46 -8 26 12 46 123 125
51 37 93 72 93 80 0 19 -12 16 -50 -12 -39 -29 -50 -21 -50 37 0 36 0 37 78
67 79 31 152 38 159 14z m-423 -294 c8 -40 1 -49 -34 -49 -38 0 -63 -25 -50
-50 5 -10 43 -49 84 -85 41 -37 80 -80 86 -95 11 -26 8 -35 -31 -102 -140
-242 -361 -545 -549 -752 -41 -45 -131 -119 -137 -112 -2 2 29 51 69 108 41
56 123 175 183 263 60 88 137 201 172 250 148 214 213 312 213 324 0 8 -52 66
-115 131 -63 65 -115 125 -115 134 0 33 78 60 186 65 28 1 32 -3 38 -30z
m-219 -161 c139 -168 130 -152 106 -191 -50 -78 -46 -77 -94 -24 l-42 48 -83
-103 c-81 -99 -84 -104 -78 -143 4 -22 11 -69 16 -104 l8 -63 -45 -67 c-26
-36 -48 -68 -50 -70 -7 -10 -12 9 -22 84 -6 44 -15 112 -21 150 -20 151 -61
463 -67 512 -5 49 -4 52 18 58 57 14 235 42 244 38 6 -2 55 -59 110 -125z
m-440 -53 c9 -60 21 -137 25 -170 5 -33 13 -91 19 -130 6 -38 24 -158 40 -265
l29 -195 -91 -137 c-68 -104 -96 -138 -111 -138 -60 0 -192 109 -291 240 -27
36 -81 108 -120 160 -86 114 -273 383 -281 405 -4 10 17 40 62 88 38 39 72 72
77 72 9 0 37 -44 256 -408 79 -131 145 -236 148 -234 3 4 -74 299 -117 447 -5
19 -21 73 -34 120 l-24 85 36 32 c21 18 41 31 46 29 6 -1 50 -99 98 -217 122
-296 180 -433 186 -439 7 -8 -23 227 -68 520 -25 169 -31 222 -25 228 10 10
109 29 117 22 4 -3 14 -54 23 -115z m796 89 c27 -9 49 -21 49 -26 0 -6 -10
-23 -21 -40 l-22 -30 -43 43 c-69 67 -57 84 37 53z"/>
<path d="M1099 2406 c-6 -6 -505 -106 -529 -106 -12 0 -23 -6 -26 -13 -4 -11
57 -191 69 -203 2 -2 41 7 88 20 46 13 173 48 281 77 109 29 202 56 208 59 8
5 8 30 -1 89 l-12 81 -37 0 c-20 0 -39 -2 -41 -4z"/>
<path d="M2527 2323 c-9 -8 -9 -95 -1 -146 7 -40 9 -41 97 -51 l47 -6 0 95 0
94 -37 6 c-90 14 -100 15 -106 8z"/>
<path d="M1115 1883 c-66 -19 -122 -36 -124 -38 -5 -6 30 -113 44 -131 10 -15
21 -14 128 7 l117 22 0 38 c0 56 -20 139 -33 138 -7 0 -66 -16 -132 -36z"/>
<path d="M1838 1363 c-11 -2 -18 -14 -17 -26 1 -40 25 -177 33 -184 4 -4 34
21 67 56 l59 63 -34 47 c-34 46 -61 57 -108 44z"/>
</g>
</svg>
